# xmcd CD database file
#
# Track frame offsets:
#	150
#	8140
#	31772
#	47045
#	59372
#	85397
#	104960
#	123762
#	147195
#	176970
#	184612
#	208337
#	227410
#
# Disc length: 3314 seconds
#
# Revision: 0
# Processed by: cddbd v1.5.1PL0 Copyright (c) Steve Scherf et al.
# Submitted via: CDex 1.51
#
DISCID=b40cf00d
DTITLE=dip - CRACKED
DYEAR=2000
DGENRE=Rock
TTITLE0=STONE
TTITLE1=TIME ACID NO CRY AIR
TTITLE2=SEE EMILY PLAY
TTITLE3=SHE CRACKED
TTITLE4=T.V. EYE
TTITLE5=STUDIO
TTITLE6=WIRE
TTITLE7=SASA SAYS
TTITLE8=CEL
TTITLE9=MIFFY
TTITLE10=LUST FOR LIFE
TTITLE11=LUST FOR LIFE
TTITLE12=MIRRORS
EXTD=YEAR: 2000
EXTT0=
EXTT1=
EXTT2=
EXTT3=
EXTT4=
EXTT5=
EXTT6=
EXTT7=
EXTT8=
EXTT9=
EXTT10=
EXTT11=
EXTT12=
PLAYORDER=
